<svg height="512pt" viewBox="0 0 512 512.00024" width="512pt" xmlns="http://www.w3.org/2000/svg"><path d="m156.167969 512c-1.910157 0-3.855469-.367188-5.734375-1.144531-7.652344-3.171875-11.285156-11.945313-8.117188-19.601563l53.421875-128.964844c3.171875-7.652343 11.945313-11.289062 19.597657-8.117187 7.652343 3.171875 11.289062 11.945313 8.117187 19.597656l-53.417969 128.96875c-2.394531 5.773438-7.980468 9.261719-13.867187 9.261719zm0 0" fill="#ff9468"/><path d="m302.402344 158.964844c-1.914063 0-3.855469-.367188-5.734375-1.144532-7.652344-3.171874-11.289063-11.945312-8.117188-19.597656l53.414063-128.960937c3.171875-7.652344 11.945312-11.285157 19.601562-8.117188 7.652344 3.171875 11.285156 11.945313 8.117188 19.597657l-53.417969 128.960937c-2.394531 5.773437-7.980469 9.261719-13.863281 9.261719zm0 0" fill="#ff3636"/><path d="m368.042969 224.597656c-5.886719 0-11.472657-3.488281-13.863281-9.265625-3.171876-7.652343.460937-16.425781 8.117187-19.597656l120.394531-49.871094c7.65625-3.171875 16.429688.464844 19.601563 8.117188 3.167969 7.652343-.464844 16.425781-8.117188 19.597656l-120.398437 49.871094c-1.878906.78125-3.824219 1.148437-5.734375 1.148437zm0 0" fill="#ff3636"/><path d="m23.570312 367.28125c-5.886718 0-11.472656-3.484375-13.863281-9.261719-3.171875-7.652343.464844-16.429687 8.117188-19.597656l120.398437-49.875c7.65625-3.171875 16.429688.460937 19.597656 8.117187 3.171876 7.652344-.460937 16.425782-8.113281 19.597657l-120.402343 49.875c-1.875.777343-3.824219 1.144531-5.734376 1.144531zm0 0" fill="#ff9468"/><path d="m352.28125 503.4375c-5.886719 0-11.472656-3.484375-13.863281-9.261719l-49.871094-120.40625c-3.171875-7.652343.464844-16.425781 8.117187-19.597656 7.652344-3.167969 16.425782.464844 19.597657 8.117187l49.871093 120.40625c3.171876 7.652344-.464843 16.429688-8.117187 19.597657-1.875.777343-3.820313 1.144531-5.734375 1.144531zm0 0" fill="#ff3636"/><path d="m209.597656 158.964844c-5.886718 0-11.46875-3.484375-13.863281-9.261719l-49.871094-120.398437c-3.167969-7.65625.464844-16.429688 8.117188-19.601563 7.65625-3.167969 16.429687.46875 19.597656 8.117187l49.871094 120.402344c3.171875 7.652344-.460938 16.425782-8.117188 19.597656-1.875.777344-3.820312 1.144532-5.734375 1.144532zm0 0" fill="#ff9468"/><path d="m496.988281 370.828125c-1.910156 0-3.855469-.367187-5.730469-1.144531l-128.964843-53.414063c-7.652344-3.171875-11.289063-11.945312-8.117188-19.601562 3.167969-7.652344 11.941407-11.285157 19.597657-8.117188l128.964843 53.417969c7.652344 3.167969 11.285157 11.941406 8.117188 19.597656-2.394531 5.777344-7.980469 9.261719-13.867188 9.261719zm0 0" fill="#ff3636"/><path d="m143.957031 224.597656c-1.914062 0-3.859375-.367187-5.734375-1.144531l-128.960937-53.417969c-7.652344-3.171875-11.285157-11.945312-8.117188-19.597656 3.171875-7.65625 11.945313-11.289062 19.601563-8.121094l128.957031 53.417969c7.652344 3.171875 11.289063 11.945313 8.117187 19.597656-2.390624 5.777344-7.976562 9.265625-13.863281 9.265625zm0 0" fill="#ff9468"/><path d="m365.3125 210.71875 58.015625-122.046875-122.050781 58.011719-45.277344-127.324219-45.28125 127.324219-122.046875-58.015625 58.015625 122.050781-127.328125 45.28125 127.328125 45.277344-58.019531 122.050781 122.050781-58.019531 45.277344 127.328125 45.28125-127.324219 122.050781 58.015625-58.015625-122.050781 127.328125-45.273438zm0 0" fill="#ffb64c"/><path d="m492.640625 256.003906-127.328125-45.285156 58.015625-122.046875-122.050781 58.011719-45.277344-127.324219v473.273437l45.277344-127.320312 122.050781 58.015625-58.015625-122.050781zm0 0" fill="#ff5b5b"/><path d="m255.996094 507.636719c-6.34375 0-12.003906-3.996094-14.132813-9.976563l-39.710937-111.671875-107.042969 50.886719c-5.734375 2.722656-12.558594 1.546875-17.046875-2.941406-4.488281-4.488282-5.664062-11.3125-2.941406-17.046875l50.882812-107.042969-111.667968-39.710938c-5.980469-2.125-9.976563-7.785156-9.976563-14.132812 0-6.34375 3.996094-12.003906 9.976563-14.132812l111.671874-39.714844-50.882812-107.042969c-2.726562-5.730469-1.546875-12.558594 2.9375-17.046875 4.488281-4.488281 11.316406-5.664062 17.046875-2.941406l107.042969 50.882812 39.714844-111.667968c2.125-5.980469 7.785156-9.976563 14.132812-9.976563s12.007812 3.996094 14.132812 9.976563l39.714844 111.667968 107.042969-50.878906c5.730469-2.722656 12.558594-1.546875 17.046875 2.941406 4.484375 4.488282 5.664062 11.3125 2.9375 17.042969l-50.882812 107.042969 111.671874 39.71875c5.980469 2.125 9.976563 7.785156 9.976563 14.132812s-3.996094 12.007813-9.976563 14.132813l-111.667968 39.707031 50.878906 107.046875c2.726562 5.730469 1.546875 12.558594-2.941406 17.042969-4.488282 4.488281-11.3125 5.667968-17.046875 2.941406l-107.042969-50.882812-39.714844 111.671874c-2.125 5.976563-7.785156 9.972657-14.132812 9.972657zm-45.277344-157.324219c1.949219 0 3.902344.378906 5.742188 1.140625 3.917968 1.625 6.96875 4.832031 8.390624 8.832031l31.148438 87.585938 31.144531-87.585938c1.421875-3.996094 4.472657-7.207031 8.394531-8.832031 3.921876-1.621094 8.347657-1.511719 12.179688.3125l83.953125 39.90625-39.902344-83.957031c-1.824219-3.832032-1.9375-8.257813-.3125-12.179688s4.835938-6.96875 8.832031-8.390625l87.585938-31.144531-87.589844-31.152344c-3.996094-1.421875-7.207031-4.472656-8.828125-8.394531-1.625-3.921875-1.511719-8.34375.308594-12.179687l39.90625-83.949219-83.953125 39.90625c-3.832031 1.820312-8.261719 1.933593-12.179688.308593-3.921874-1.621093-6.972656-4.832031-8.394531-8.832031l-31.144531-87.582031-31.148438 87.582031c-1.421874 3.996094-4.46875 7.207031-8.390624 8.832031-3.921876 1.621094-8.347657 1.507813-12.179688-.3125l-83.957031-39.902343 39.910156 83.953125c1.820313 3.832031 1.933594 8.257812.3125 12.179687-1.625 3.921875-4.835937 6.972657-8.832031 8.394531l-87.585938 31.148438 87.582032 31.144531c4 1.421875 7.210937 4.472657 8.832031 8.394531 1.625 3.917969 1.511719 8.34375-.3125 12.179688l-39.90625 83.953125 83.957031-39.90625c2.03125-.96875 4.234375-1.453125 6.4375-1.453125zm0 0" fill="#ff637b"/><path d="m497.664062 241.871094-111.671874-39.71875 50.882812-107.042969c2.726562-5.730469 1.546875-12.554687-2.9375-17.042969-4.488281-4.488281-11.316406-5.664062-17.046875-2.941406l-107.042969 50.878906-39.714844-111.667968c-2.125-5.980469-7.785156-9.976563-14.132812-9.976563v59.765625l31.144531 87.585938c1.421875 3.996093 4.472657 7.207031 8.394531 8.832031 3.917969 1.621093 8.347657 1.511719 12.179688-.3125l83.953125-39.902344-39.90625 83.949219c-1.820313 3.832031-1.933594 8.257812-.308594 12.179687 1.621094 3.921875 4.832031 6.972657 8.828125 8.394531l87.589844 31.148438-87.585938 31.144531c-3.996093 1.421875-7.207031 4.472657-8.832031 8.394531-1.625 3.921876-1.511719 8.347657.3125 12.179688l39.902344 83.957031-83.953125-39.90625c-3.832031-1.824219-8.257812-1.9375-12.179688-.3125-3.921874 1.625-6.972656 4.832031-8.394531 8.832031l-31.144531 87.578126v59.769531c6.34375 0 12.003906-3.996094 14.128906-9.972657l39.714844-111.671874 107.042969 50.882812c5.734375 2.730469 12.558593 1.546875 17.046875-2.9375 4.488281-4.488281 5.667968-11.3125 2.941406-17.046875l-50.878906-107.046875 111.667968-39.707031c5.980469-2.125 9.976563-7.785157 9.976563-14.132813s-3.996094-12.007812-9.976563-14.132812zm0 0" fill="#ff1786"/></svg>